<?xml version="1.0" encoding="UTF-8"?>
<!DOCTYPE svg PUBLIC "-//W3C//DTD SVG 1.1//EN" "http://www.w3.org/Graphics/SVG/1.1/DTD/svg11.dtd">
<svg xmlns="http://www.w3.org/2000/svg" version="1.1" width="512px" height="512px" style="shape-rendering:geometricPrecision; text-rendering:geometricPrecision; image-rendering:optimizeQuality; fill-rule:evenodd; clip-rule:evenodd" xmlns:xlink="http://www.w3.org/1999/xlink">
<g><path style="opacity:1" fill="#fefefe" d="M -0.5,-0.5 C 170.167,-0.5 340.833,-0.5 511.5,-0.5C 511.5,170.167 511.5,340.833 511.5,511.5C 340.833,511.5 170.167,511.5 -0.5,511.5C -0.5,340.833 -0.5,170.167 -0.5,-0.5 Z"/></g>
<g><path style="opacity:1" fill="#000000" d="M 254.5,71.5 C 257.325,71.0807 259.491,72.0807 261,74.5C 261.5,110.165 261.667,145.832 261.5,181.5C 287.169,181.333 312.835,181.5 338.5,182C 339.416,182.374 340.25,182.874 341,183.5C 341.667,208.5 341.667,233.5 341,258.5C 340.5,259 340,259.5 339.5,260C 286.168,260.5 232.834,260.667 179.5,260.5C 179.5,280.167 179.5,299.833 179.5,319.5C 205.169,319.333 230.835,319.5 256.5,320C 257.416,320.374 258.25,320.874 259,321.5C 259.667,359.833 259.667,398.167 259,436.5C 256,440.5 253,440.5 250,436.5C 249.5,400.835 249.333,365.168 249.5,329.5C 223.455,329.824 197.455,329.491 171.5,328.5C 170.808,327.975 170.308,327.308 170,326.5C 169.167,301.493 169.334,276.493 170.5,251.5C 224.125,250.504 277.791,250.171 331.5,250.5C 331.5,230.833 331.5,211.167 331.5,191.5C 305.259,191.828 279.092,191.495 253,190.5C 251.346,151.918 251.012,113.251 252,74.5C 253.045,73.6266 253.878,72.6266 254.5,71.5 Z"/></g>
</svg>
